<svg width="53" height="53" viewBox="0 0 53 53" fill="none" xmlns="http://www.w3.org/2000/svg">
<g clip-path="url(#clip0_3_12504)">
<path fill-rule="evenodd" clip-rule="evenodd" d="M19.3722 29.2176C18.13 29.7982 16.729 29.9088 15.1983 29.3557C10.4634 27.6444 8.74736 23.7464 8.76245 19.2532C8.78469 12.6922 12.5531 4.85082 15.7229 1.03428C15.8728 0.853345 16.1409 0.829166 16.3208 0.979016C16.5017 1.12894 16.5269 1.39709 16.377 1.57802C13.3002 5.28211 9.63454 12.8891 9.61251 19.2566C9.59879 23.3823 11.1386 26.9845 15.4878 28.5557C16.7819 29.0242 17.9639 28.9268 19.0154 28.4387C18.707 27.7466 18.4221 27.0549 18.162 26.3647C17.4442 24.4594 16.519 19.2358 17.2191 15.4807C17.7221 12.787 19.0583 10.8504 21.7008 11.0857C23.1696 11.2169 24.1769 12.1996 24.7372 13.6985C25.5087 15.7588 25.4183 18.836 24.6046 21.7392C23.9275 24.1565 22.753 26.4493 21.1963 27.9401C20.8535 28.2671 20.4935 28.5575 20.116 28.8027C24.5761 38.3201 33.3896 47.5085 42.7643 51.7357C42.9775 51.8328 43.0737 52.0838 42.9765 52.2981C42.8804 52.5125 42.6283 52.6076 42.415 52.5115C32.8877 48.2147 23.9268 38.8914 19.3722 29.2176ZM19.7576 28.0162C19.4691 27.3651 19.2022 26.7143 18.9578 26.0649C18.2705 24.2389 17.3844 19.2349 18.0553 15.6369C18.4668 13.4289 19.4598 11.7396 21.6256 11.9324C22.7629 12.0343 23.5063 12.8362 23.9415 13.9962C24.4189 15.2728 24.5263 16.9682 24.3258 18.7562C24.0215 21.4708 23.0043 24.3979 21.4254 26.4162C20.9256 27.0558 20.368 27.6027 19.7576 28.0162Z" fill="#2B2B2B"/>
<path fill-rule="evenodd" clip-rule="evenodd" d="M36.042 37.374C36.5861 42.4169 39.5171 47.933 42.8036 51.8308C42.9548 52.01 42.9316 52.2784 42.7524 52.4296C42.5732 52.5807 42.3047 52.5587 42.1535 52.3794C38.7639 48.3601 35.7581 42.6642 35.1968 37.4654C35.1715 37.2328 35.3405 37.0229 35.5742 36.9977C35.8069 36.9724 36.0167 37.1413 36.042 37.374Z" fill="#2B2B2B"/>
<path fill-rule="evenodd" clip-rule="evenodd" d="M42.0932 52.4656C38.5634 50.1477 32.9673 49.5094 28.8089 50.3138C28.5783 50.3586 28.3544 50.2081 28.3107 49.9775C28.2659 49.7469 28.4162 49.524 28.6469 49.4793C33.0033 48.6367 38.8616 49.3268 42.5598 51.755C42.7561 51.8833 42.8106 52.1479 42.6823 52.3442C42.5529 52.5404 42.2894 52.5949 42.0932 52.4656Z" fill="black"/>
</g>
<defs>
<clipPath id="clip0_3_12504">
<rect width="50" height="50" fill="white" transform="matrix(0.998071 0.0620871 0.0620871 -0.998071 0 49.9035)"/>
</clipPath>
</defs>
</svg>
